<svg width="28" height="28" viewBox="0 0 28 28" fill="none" xmlns="http://www.w3.org/2000/svg">
<path fill-rule="evenodd" clip-rule="evenodd" d="M14 3.49984C9.48967 3.49984 5.83333 7.15618 5.83333 11.6665C5.83333 14.3489 7.29882 16.3948 9.29991 18.479C9.77858 18.9776 10.2752 19.466 10.7825 19.9649L10.8396 20.021C11.362 20.5349 11.8955 21.0607 12.4036 21.5961C12.964 22.1867 13.5111 22.8068 14 23.4672C14.4889 22.8068 15.036 22.1867 15.5964 21.5961C16.1045 21.0607 16.638 20.5349 17.1604 20.021L17.2175 19.9649C17.7248 19.466 18.2214 18.9775 18.7001 18.479C20.7012 16.3948 22.1667 14.3489 22.1667 11.6665C22.1667 7.15618 18.5103 3.49984 14 3.49984ZM3.5 11.6665C3.5 5.86751 8.20101 1.1665 14 1.1665C19.799 1.1665 24.5 5.86751 24.5 11.6665C24.5 15.3054 22.4655 17.9262 20.3832 20.095C19.8808 20.6183 19.3626 21.1279 18.8616 21.6206L18.7966 21.6846C18.2709 22.2016 17.7653 22.7003 17.289 23.2022C16.3316 24.2112 15.5498 25.1756 15.0435 26.1883C14.8459 26.5835 14.4419 26.8332 14 26.8332C13.5581 26.8332 13.1541 26.5835 12.9565 26.1883C12.4502 25.1756 11.6684 24.2112 10.711 23.2022C10.2347 22.7003 9.72911 22.2016 9.2034 21.6846L9.13832 21.6206C8.63737 21.1279 8.11921 20.6183 7.61676 20.095C5.53451 17.9262 3.5 15.3054 3.5 11.6665ZM14 8.74984C12.7113 8.74984 11.6667 9.79451 11.6667 11.0832C11.6667 12.3718 12.7113 13.4165 14 13.4165C15.2887 13.4165 16.3333 12.3718 16.3333 11.0832C16.3333 9.79451 15.2887 8.74984 14 8.74984ZM9.33333 11.0832C9.33333 8.50584 11.4227 6.4165 14 6.4165C16.5773 6.4165 18.6667 8.50584 18.6667 11.0832C18.6667 13.6605 16.5773 15.7498 14 15.7498C11.4227 15.7498 9.33333 13.6605 9.33333 11.0832Z" fill="#59626B"/>
</svg>
